# xmcd CD database file generated by Grip 3.2.0
# 
# Track frame offsets:
#       150
#       14854
#       35713
#       58094
#       80946
#       100441
#       119552
#       144126
#       165997
#       182653
#       204633
#       228729
#       248046
#       268752
#       287570
#       310291
#       327482
# 
# Disc length: 4644 seconds
# 
# Revision: 3
# Processed by: cddbd v1.5.2PL0 Copyright (c) Steve Scherf et al.
# Submitted via: Grip 3.2.0
# 
DISCID=06122211
DTITLE=Lisa Stansfield - Affection (Bonus Tracks)
DYEAR=2003
DGENRE=Pop
TTITLE0=This Is The Right Time
TTITLE1=Mighty Love
TTITLE2=Sincerity
TTITLE3=The Love In Me
TTITLE4=All Around The World
TTITLE5=What Did I Do To You?(7" Version)
TTITLE6=Live Together
TTITLE7=You Can't Deny It (US Version)
TTITLE8=Poison
TTITLE9=When Are You Coming Back?
TTITLE10=Affection
TTITLE11=Wake Up Baby
TTITLE12=The Way You Want It
TTITLE13=People Hold On (Single Mix) feat. Coldcut
TTITLE14=My Apple Heart
TTITLE15=Lay Me Down
TTITLE16=Something's Happenin'
EXTD=Arista Records #82876 521962
EXTT0=
EXTT1=
EXTT2=
EXTT3=
EXTT4=
EXTT5=
EXTT6=
EXTT7=
EXTT8=
EXTT9=
EXTT10=
EXTT11=
EXTT12=
EXTT13=
EXTT14=
EXTT15=
EXTT16=
PLAYORDER=
